<svg version="1.2" baseProfile="tiny-ps" xmlns="http://www.w3.org/2000/svg" viewBox="0 0 9230 9230">
<title>Combo Salva Universitario</title>
<rect width="9230" height="9230" fill="#f5a623"/>
<g transform="translate(0,9230) scale(1,-1)" fill="#1a1a1a">
<path d="M0 4615 l0 -4615 4615 0 4615 0 0 4615 0 4615 -4615 0 -4615 0 0
-4615z m4701 2826 c119 -42 1141 -530 1194 -571 6 -4 78 -42 160 -85 83 -43
183 -98 223 -122 41 -24 75 -43 77 -43 6 0 249 -140 455 -263 216 -129 511
-314 695 -437 72 -48 166 -111 210 -140 130 -87 249 -173 269 -195 76 -82 72
-224 -8 -307 -38 -40 -68 -53 -212 -93 -71 -20 -187 -55 -259 -77 -71 -22
-164 -50 -205 -63 -405 -125 -1035 -363 -1505 -567 -288 -126 -680 -315 -986
-476 -123 -65 -141 -72 -193 -72 -53 0 -71 7 -205 77 -243 128 -807 403 -827
403 -2 0 -32 13 -66 29 -35 15 -108 47 -163 71 -55 24 -106 48 -112 53 -19 14
-16 76 5 116 12 25 47 51 130 102 63 38 116 69 118 69 2 0 22 11 43 25 147 92
571 321 929 501 156 78 292 150 303 160 12 11 33 39 48 64 21 36 26 58 26 111
0 56 -5 73 -30 115 -17 27 -51 62 -75 79 -41 27 -52 30 -125 29 l-80 0 -270
-137 c-386 -195 -730 -378 -787 -418 -14 -11 -28 -19 -31 -19 -10 0 -353 -203
-427 -254 -105 -71 -199 -200 -229 -313 -7 -24 -15 -43 -19 -43 -4 0 -72 25
-152 56 -277 106 -794 275 -1155 379 -151 44 -169 52 -212 97 -81 84 -83 216
-6 304 33 37 505 358 763 519 69 42 148 92 175 110 69 45 374 227 541 323 536
306 1147 615 1704 862 153 68 182 72 271 41z m-2555 -2960 c188 -65 373 -134
547 -203 l77 -31 0 -193 c0 -118 -4 -194 -10 -194 -5 0 -39 -28 -75 -61 -48
-45 -75 -82 -103 -137 -37 -76 -37 -77 -37 -202 0 -119 1 -128 31 -190 17 -36
57 -94 89 -129 l59 -63 -33 -101 c-19 -56 -46 -130 -61 -164 l-28 -62 -149 68
c-218 101 -247 113 -373 166 -122 51 -170 86 -201 148 -35 67 -26 393 31 1142
11 143 20 263 20 268 0 12 9 9 216 -62z m5148 61 c9 -15 47 -509 66 -857 17
-317 15 -493 -5 -543 -16 -39 -95 -122 -117 -122 -17 0 -236 -96 -503 -220
-49 -23 -110 -51 -135 -62 -81 -36 -517 -256 -652 -329 -388 -209 -723 -408
-1093 -650 -142 -93 -179 -109 -242 -109 -62 1 -100 19 -263 125 -192 125
-236 152 -470 295 -137 84 -522 300 -705 395 -71 37 -134 72 -139 76 -5 5 12
62 41 136 52 131 72 190 93 278 7 28 14 58 17 68 2 9 22 26 44 38 54 27 152
128 179 184 71 146 66 323 -13 453 -28 48 -79 102 -145 154 -20 16 -22 27 -22
109 0 89 0 90 23 83 76 -24 662 -305 995 -477 67 -35 155 -72 195 -83 92 -24
255 -25 345 0 35 9 219 95 410 191 191 95 376 187 412 203 36 16 104 48 153
71 48 22 89 41 92 41 2 0 28 11 57 24 305 140 705 299 1123 447 44 15 116 41
160 58 93 34 92 34 99 23z m-4577 -1853 c120 -57 286 -139 291 -144 5 -5 -47
-104 -100 -189 -108 -172 -267 -357 -347 -404 -141 -83 -330 25 -332 191 -1
75 18 113 116 224 89 101 181 229 230 321 15 28 30 52 31 52 2 0 52 -23 111
-51z"/>
</g>
</svg>
<svg version="1.2" baseProfile="tiny-ps" xmlns="http://www.w3.org/2000/svg" viewBox="0 0 512 512" width="512" height="512">
  <title>Combo Salva Universitario</title>
  <rect width="512" height="512" fill="#1a1a1a"/>
  <g transform="translate(56,56) scale(0.78)">
    <defs>
      <linearGradient id="g1" x1="0" y1="0" x2="1" y2="1">
        <stop offset="0" stop-color="#f5a623"/>
        <stop offset="1" stop-color="#e8751a"/>
      </linearGradient>
    </defs>
    <path d="M249 42c8-5 18-5 26 0l192 130c9 6 8 19-1 24L282 302c-7 4-16 4-23 0L75 196c-9-5-10-18-1-24L249 42Z" fill="url(#g1)"/>
    <path d="M96 252c0-10 11-17 20-12l148 82c7 4 15 4 22 0l127-70c9-5 20 2 20 12v62c0 7-4 14-11 18L276 420c-13 7-28 7-41 0L108 352c-7-4-11-11-11-18v-82Z" fill="url(#g1)"/>
    <path d="M160 241l-28 16c-5 3-8 10-8 16 0 26 22 48 48 48 27 0 48-22 48-48 0-7-1-14-4-20l74-41c7-4 9-12 5-19-4-7-12-9-19-5l-87 48c-5-5-12-8-19-10v-23L310 138c7-4 9-12 5-19-4-7-12-9-19-5L184 178c-18 10-29 29-29 49v6c-8 2-15 5-22 8Z" fill="#1a1a1a"/>
    <path d="M147 321c12 0 22 10 22 22v38c0 12-10 22-22 22-12 0-22-10-22-22v-38c0-12 10-22 22-22Z" fill="#1a1a1a"/>
    <path d="M146 393c-19 0-34 13-37 31-1 4 2 7 6 7h63c4 0 7-3 6-7-3-18-19-31-38-31Z" fill="url(#g1)"/>
  </g>
</svg>
